<svg xmlns="http://www.w3.org/2000/svg" version="1.1" xmlns:xlink="http://www.w3.org/1999/xlink" xmlns:svgjs="http://svgjs.dev/svgjs" width="1500" height="318" viewBox="0 0 1500 318"><g transform="matrix(1,0,0,1,-0.9090909090909918,-0.8361712056197348)"><svg viewBox="0 0 396 84" data-background-color="#ffffff" preserveAspectRatio="xMidYMid meet" height="318" width="1500" xmlns="http://www.w3.org/2000/svg" xmlns:xlink="http://www.w3.org/1999/xlink"><g id="tight-bounds" transform="matrix(1,0,0,1,0.2400000000000091,0.2208754128052135)"><svg viewBox="0 0 395.52 83.55793129597062" height="83.55793129597062" width="395.52"><g><svg viewBox="0 0 528.9457157935104 111.74557488767229" height="83.55793129597062" width="395.52"><g transform="matrix(1,0,0,1,133.42571579351042,20.097663896722217)"><svg viewBox="0 0 395.52 71.55024709422786" height="71.55024709422786" width="395.52"><g id="textblocktransform"><svg viewBox="0 0 395.52 71.55024709422786" height="71.55024709422786" width="395.52" id="textblock"><g><rect width="106.79039999999999" height="4.140906913015083" y="62.08356274628165" fill="#261f20" data-fill-palette-color="tertiary"></rect><rect width="106.79039999999999" height="4.140906913015083" y="62.08356274628165" x="288.7296" fill="#261f20" data-fill-palette-color="tertiary"></rect></g><g><svg viewBox="0 0 395.52 45.91771485843147" height="45.91771485843147" width="395.52"><g transform="matrix(1,0,0,1,0,0)"><svg width="395.52" viewBox="2.76 -33.45 292.29 33.940000000000005" height="45.91771485843147" data-palette-color="#000000"><path d="M26.88-17.21L26.88-3.25Q21.29 0.49 15.6 0.49L15.6 0.49Q9.5 0.49 6.13-4.04 2.76-8.57 2.76-16.63L2.76-16.63Q2.76-25.1 5.98-29.27 9.2-33.45 15.67-33.45L15.67-33.45Q24.12-33.45 26.93-25.37L26.93-25.37 22.75-24Q20.8-29.64 15.72-29.64L15.72-29.64Q11.6-29.64 9.63-26.56 7.67-23.49 7.67-16.63L7.67-16.63Q7.67-3.3 15.99-3.3L15.99-3.3Q17.65-3.3 19.43-3.81 21.22-4.32 22.34-5.1L22.34-5.1 22.34-13.31 15.19-13.31 15.19-17.21 26.88-17.21ZM56.71-12.28L37.86-12.28Q37.86-7.84 39.83-5.32 41.79-2.81 45.21-2.81L45.21-2.81Q47.73-2.81 49.62-3.89 51.51-4.98 52.15-6.86L52.15-6.86 56-5.76Q54.93-2.73 52.06-1.12 49.19 0.49 45.21 0.49L45.21 0.49Q39.45 0.49 36.35-3.1 33.25-6.69 33.25-13.38L33.25-13.38Q33.25-19.9 36.29-23.4 39.33-26.9 45.07-26.9L45.07-26.9Q50.8-26.9 53.76-23.41 56.71-19.92 56.71-12.87L56.71-12.87 56.71-12.28ZM45.11-23.66L45.11-23.66Q41.84-23.66 39.94-21.52 38.03-19.38 37.91-15.65L37.91-15.65 52.17-15.65Q51.49-23.66 45.11-23.66ZM85.62 0L81.2 0 81.2-16.97Q81.2-20.29 79.91-21.9 78.63-23.51 75.83-23.51L75.83-23.51Q72.8-23.51 70.86-21.3 68.92-19.09 68.92-15.31L68.92-15.31 68.92 0 64.52 0 64.52-20.78Q64.52-25.39 64.37-26.42L64.37-26.42 68.53-26.42Q68.55-26.29 68.57-25.76 68.6-25.22 68.64-24.52 68.67-23.83 68.72-21.9L68.72-21.9 68.79-21.9Q71.36-26.9 77.24-26.9L77.24-26.9Q81.46-26.9 83.54-24.62 85.62-22.34 85.62-17.6L85.62-17.6 85.62 0ZM118.13-29.13L107.32-29.13 107.32 0 102.68 0 102.68-29.13 91.86-29.13 91.86-32.93 118.13-32.93 118.13-29.13ZM146.72-12.28L127.87-12.28Q127.87-7.84 129.84-5.32 131.8-2.81 135.22-2.81L135.22-2.81Q137.73-2.81 139.63-3.89 141.52-4.98 142.15-6.86L142.15-6.86 146.01-5.76Q144.94-2.73 142.07-1.12 139.2 0.49 135.22 0.49L135.22 0.49Q129.46 0.49 126.36-3.1 123.26-6.69 123.26-13.38L123.26-13.38Q123.26-19.9 126.3-23.4 129.34-26.9 135.07-26.9L135.07-26.9Q140.81-26.9 143.76-23.41 146.72-19.92 146.72-12.87L146.72-12.87 146.72-12.28ZM135.12-23.66L135.12-23.66Q131.85-23.66 129.95-21.52 128.04-19.38 127.92-15.65L127.92-15.65 142.18-15.65Q141.49-23.66 135.12-23.66ZM177.67 0L172.77 0 164.93-10.84 157.04 0 152.31 0 162.44-13.57 152.75-26.42 157.6-26.42 164.93-16.14 172.2-26.42 177.11-26.42 167.42-13.62 177.67 0ZM188.75-22.95L184.65-22.95 184.65-26.42 188.8-26.42 190.22-33.3 193.15-33.3 193.15-26.42 203.7-26.42 203.7-22.95 193.15-22.95 193.15-7.03Q193.15-5.1 194.19-4.17 195.22-3.25 197.59-3.25L197.59-3.25Q200.86-3.25 204.84-4.08L204.84-4.08 204.84-0.73Q200.72 0.39 196.66 0.39L196.66 0.39Q192.71 0.39 190.73-1.28 188.75-2.95 188.75-6.57L188.75-6.57 188.75-22.95ZM270 0L265.26 0 261.89-9.33 248.15-9.33 244.8 0 240.02 0 252.47-32.93 257.77-32.93 270 0ZM256.47-25.17L255.06-29.42 254.77-28.47 253.08-23.29 249.39-12.96 260.7-12.96 256.47-25.17ZM274.95-29.13L274.95-32.93 295.05-32.93 295.05-29.13 287.33-29.13 287.33-3.81 295.05-3.81 295.05 0 274.95 0 274.95-3.81 282.67-3.81 282.67-29.13 274.95-29.13Z" opacity="1" transform="matrix(1,0,0,1,0,0)" fill="#000000" class="wordmark-text-0" data-fill-palette-color="primary" id="text-0"></path></svg></g></svg></g><g transform="matrix(1,0,0,1,106.79039999999999,56.75778531135053)"><svg viewBox="0 0 181.9392 14.79246178287732" height="14.79246178287732" width="181.9392"><g transform="matrix(1,0,0,1,8,0)"><svg width="165.9392" viewBox="1.75 -39.65 566.42 50.5" height="14.79246178287732" data-palette-color="#000000"><path d="M14.5-35.25Q17.15-35.25 19.18-34.38 21.2-33.5 23.1-31.7L23.1-31.7 20.05-28.05Q18.75-29.25 17.53-29.83 16.3-30.4 14.85-30.4L14.85-30.4Q11.85-30.4 10.15-27.4 8.45-24.4 8.45-17.35L8.45-17.35Q8.45-10.4 10.15-7.38 11.85-4.35 14.95-4.35L14.95-4.35Q16.5-4.35 17.65-4.98 18.8-5.6 20.35-6.9L20.35-6.9 23.4-3.4Q21.8-1.6 19.55-0.43 17.3 0.75 14.5 0.75L14.5 0.75Q8.65 0.75 5.2-3.8 1.75-8.35 1.75-17.35L1.75-17.35Q1.75-23.3 3.4-27.3 5.05-31.3 7.93-33.27 10.8-35.25 14.5-35.25L14.5-35.25ZM38.3-27.1Q39.45-27.1 40.35-26.75L40.35-26.75 39.35-20.85Q38.35-21.1 37.5-21.1L37.5-21.1Q35.6-21.1 34.5-19.45 33.4-17.8 32.8-14.55L32.8-14.55 32.8 0 26.65 0 26.65-26.45 32-26.45 32.45-21.85Q34.3-27.1 38.3-27.1L38.3-27.1ZM60.09-6.4Q60.09-5.1 60.45-4.48 60.8-3.85 61.59-3.45L61.59-3.45 60.34 0.65Q58.3 0.4 57.07-0.45 55.84-1.3 55.24-3.05L55.24-3.05Q52.95 0.75 48.8 0.75L48.8 0.75Q45.49 0.75 43.55-1.48 41.59-3.7 41.59-7.4L41.59-7.4Q41.59-11.7 44.27-13.95 46.95-16.2 52.05-16.2L52.05-16.2 54.09-16.2 54.09-18.05Q54.09-20.55 53.22-21.58 52.34-22.6 50.39-22.6L50.39-22.6Q48.05-22.6 44.55-21.3L44.55-21.3 43.14-25.3Q45.14-26.2 47.3-26.68 49.45-27.15 51.39-27.15L51.39-27.15Q60.09-27.15 60.09-18.35L60.09-18.35 60.09-6.4ZM50.45-3.7Q52.84-3.7 54.09-7L54.09-7 54.09-12.55 52.64-12.55Q50.09-12.55 48.92-11.4 47.74-10.25 47.74-7.85L47.74-7.85Q47.74-5.8 48.45-4.75 49.14-3.7 50.45-3.7L50.45-3.7ZM75.59-33.05Q74.19-33.05 73.52-32.3 72.84-31.55 72.84-30L72.84-30 72.84-26.45 77.89-26.45 77.19-22 72.84-22 72.84 0 66.69 0 66.69-22 63.39-22 63.39-26.45 66.69-26.45 66.69-29.8Q66.69-33.4 68.79-35.55 70.89-37.7 74.79-37.7L74.79-37.7Q77.84-37.7 80.69-36.2L80.69-36.2 78.99-32.2Q77.24-33.05 75.59-33.05L75.59-33.05ZM91.84-5L93.99-1.2Q91.54 0.75 88.24 0.75L88.24 0.75Q84.79 0.75 82.99-1.23 81.19-3.2 81.19-6.6L81.19-6.6 81.19-22 78.09-22 78.09-26.45 81.19-26.45 81.19-32.3 87.34-33.05 87.34-26.45 92.34-26.45 91.74-22 87.34-22 87.34-6.6Q87.34-4.2 89.39-4.2L89.39-4.2Q90.04-4.2 90.54-4.38 91.04-4.55 91.84-5L91.84-5ZM115.39-13.85Q115.39-13.4 115.24-11.3L115.24-11.3 101.59-11.3Q101.79-7.2 103.01-5.58 104.24-3.95 106.49-3.95L106.49-3.95Q108.04-3.95 109.29-4.48 110.54-5 111.99-6.15L111.99-6.15 114.54-2.65Q111.04 0.75 106.14 0.75L106.14 0.75Q100.94 0.75 98.16-2.85 95.39-6.45 95.39-13L95.39-13Q95.39-19.55 98.04-23.35 100.69-27.15 105.54-27.15L105.54-27.15Q110.19-27.15 112.79-23.78 115.39-20.4 115.39-13.85L115.39-13.85ZM109.39-15.3L109.39-15.65Q109.39-19.4 108.49-21.13 107.59-22.85 105.59-22.85L105.59-22.85Q103.74-22.85 102.76-21.18 101.79-19.5 101.59-15.3L101.59-15.3 109.39-15.3ZM132.64-37.7L138.79-37.05 138.79 0 133.34 0 133.03-3.05Q130.69 0.75 126.99 0.75L126.99 0.75Q122.89 0.75 120.71-2.93 118.54-6.6 118.54-13.2L118.54-13.2Q118.54-17.4 119.66-20.58 120.79-23.75 122.79-25.45 124.79-27.15 127.39-27.15L127.39-27.15Q130.59-27.15 132.64-24.5L132.64-24.5 132.64-37.7ZM128.74-3.9Q129.89-3.9 130.81-4.7 131.74-5.5 132.64-7L132.64-7 132.64-19.85Q131.03-22.55 128.99-22.55L128.99-22.55Q124.94-22.55 124.94-13.25L124.94-13.25Q124.94-8.2 125.94-6.05 126.94-3.9 128.74-3.9L128.74-3.9ZM166.48-27.15Q170.33-27.15 172.38-23.65 174.43-20.15 174.43-13.25L174.43-13.25Q174.43-6.75 172.13-3 169.83 0.75 165.83 0.75L165.83 0.75Q164.08 0.75 162.63-0.13 161.18-1 160.13-2.55L160.13-2.55 159.78 0 154.33 0 154.33-37 160.48-37.65 160.48-23.6Q161.53-25.3 163.06-26.23 164.58-27.15 166.48-27.15L166.48-27.15ZM164.18-3.9Q166.03-3.9 167.06-6 168.08-8.1 168.08-13.25L168.08-13.25Q168.08-18.6 167.16-20.58 166.23-22.55 164.53-22.55L164.53-22.55Q163.38-22.55 162.33-21.6 161.28-20.65 160.48-19.1L160.48-19.1 160.48-6.7Q161.13-5.45 162.11-4.67 163.08-3.9 164.18-3.9L164.18-3.9ZM197.68-26.45L190.68 0.1Q189.38 4.9 186.48 7.65 183.58 10.4 178.73 10.85L178.73 10.85 178.03 6.5Q181.18 5.85 182.75 4.42 184.33 3 185.23 0L185.23 0 182.93 0 176.23-26.45 182.48-26.45 186.88-4.1 191.58-26.45 197.68-26.45ZM232.52 0L226.07 0 224.37-8.1 215.47-8.1 213.82 0 207.47 0 216.17-34.55 223.87-34.55 232.52 0ZM219.92-29.7L216.47-12.9 223.42-12.9 219.92-29.7ZM235.42-34.55L241.77-34.55 241.77 0 235.42 0 235.42-34.55ZM250.02-7.05Q251.62-7.05 252.64-5.98 253.67-4.9 253.67-3.25L253.67-3.25Q253.67-2.55 253.44-1.78 253.22-1 252.87-0.08 252.52 0.85 252.42 1.2L252.42 1.2 249.77 8.55 246.32 8.55 248.12 0.1Q246.32-1.2 246.32-3.2L246.32-3.2Q246.32-4.85 247.37-5.95 248.42-7.05 250.02-7.05L250.02-7.05ZM265.46-34.55L287.01-34.55 286.31-29.55 279.21-29.55 279.21 0 272.86 0 272.86-29.55 265.46-29.55 265.46-34.55ZM306.81-6.4Q306.81-5.1 307.16-4.48 307.51-3.85 308.31-3.45L308.31-3.45 307.06 0.65Q305.01 0.4 303.79-0.45 302.56-1.3 301.96-3.05L301.96-3.05Q299.66 0.75 295.51 0.75L295.51 0.75Q292.21 0.75 290.26-1.48 288.31-3.7 288.31-7.4L288.31-7.4Q288.31-11.7 290.99-13.95 293.66-16.2 298.76-16.2L298.76-16.2 300.81-16.2 300.81-18.05Q300.81-20.55 299.94-21.58 299.06-22.6 297.11-22.6L297.11-22.6Q294.76-22.6 291.26-21.3L291.26-21.3 289.86-25.3Q291.86-26.2 294.01-26.68 296.16-27.15 298.11-27.15L298.11-27.15Q306.81-27.15 306.81-18.35L306.81-18.35 306.81-6.4ZM297.16-3.7Q299.56-3.7 300.81-7L300.81-7 300.81-12.55 299.36-12.55Q296.81-12.55 295.63-11.4 294.46-10.25 294.46-7.85L294.46-7.85Q294.46-5.8 295.16-4.75 295.86-3.7 297.16-3.7L297.16-3.7ZM312.61-26.45L318.76-26.45 318.76 0 312.61 0 312.61-26.45ZM315.66-39.65Q317.31-39.65 318.33-38.6 319.36-37.55 319.36-35.9L319.36-35.9Q319.36-34.3 318.33-33.25 317.31-32.2 315.66-32.2L315.66-32.2Q314.01-32.2 312.98-33.25 311.96-34.3 311.96-35.9L311.96-35.9Q311.96-37.55 312.98-38.6 314.01-39.65 315.66-39.65L315.66-39.65ZM330.06 0.75Q327.36 0.75 325.78-0.93 324.21-2.6 324.21-5.4L324.21-5.4 324.21-37.05 330.36-37.7 330.36-5.65Q330.36-5 330.66-4.6 330.96-4.2 331.56-4.2L331.56-4.2Q331.91-4.2 332.23-4.3 332.56-4.4 332.66-4.4L332.66-4.4 333.86-0.2Q332.16 0.75 330.06 0.75L330.06 0.75ZM346.3-27.15Q351.3-27.15 354.08-23.65 356.85-20.15 356.85-13.25L356.85-13.25Q356.85-6.65 354.05-2.95 351.25 0.75 346.3 0.75L346.3 0.75Q341.35 0.75 338.55-2.88 335.75-6.5 335.75-13.25L335.75-13.25Q335.75-19.95 338.55-23.55 341.35-27.15 346.3-27.15L346.3-27.15ZM346.3-22.5Q344.15-22.5 343.15-20.38 342.15-18.25 342.15-13.25L342.15-13.25Q342.15-8.2 343.15-6.08 344.15-3.95 346.3-3.95L346.3-3.95Q348.45-3.95 349.45-6.08 350.45-8.2 350.45-13.25L350.45-13.25Q350.45-18.3 349.45-20.4 348.45-22.5 346.3-22.5L346.3-22.5ZM373.05-27.1Q374.2-27.1 375.1-26.75L375.1-26.75 374.1-20.85Q373.1-21.1 372.25-21.1L372.25-21.1Q370.35-21.1 369.25-19.45 368.15-17.8 367.55-14.55L367.55-14.55 367.55 0 361.4 0 361.4-26.45 366.75-26.45 367.2-21.85Q369.05-27.1 373.05-27.1L373.05-27.1ZM396.8-13.85Q396.8-13.4 396.65-11.3L396.65-11.3 383-11.3Q383.2-7.2 384.42-5.58 385.65-3.95 387.9-3.95L387.9-3.95Q389.45-3.95 390.7-4.48 391.95-5 393.4-6.15L393.4-6.15 395.95-2.65Q392.45 0.75 387.55 0.75L387.55 0.75Q382.35 0.75 379.57-2.85 376.8-6.45 376.8-13L376.8-13Q376.8-19.55 379.45-23.35 382.1-27.15 386.95-27.15L386.95-27.15Q391.6-27.15 394.2-23.78 396.8-20.4 396.8-13.85L396.8-13.85ZM390.8-15.3L390.8-15.65Q390.8-19.4 389.9-21.13 389-22.85 387-22.85L387-22.85Q385.15-22.85 384.17-21.18 383.2-19.5 383-15.3L383-15.3 390.8-15.3ZM414.05-37.7L420.19-37.05 420.19 0 414.75 0 414.44-3.05Q412.1 0.75 408.39 0.75L408.39 0.75Q404.3 0.75 402.12-2.93 399.94-6.6 399.94-13.2L399.94-13.2Q399.94-17.4 401.07-20.58 402.19-23.75 404.19-25.45 406.19-27.15 408.8-27.15L408.8-27.15Q412-27.15 414.05-24.5L414.05-24.5 414.05-37.7ZM410.14-3.9Q411.3-3.9 412.22-4.7 413.14-5.5 414.05-7L414.05-7 414.05-19.85Q412.44-22.55 410.39-22.55L410.39-22.55Q406.35-22.55 406.35-13.25L406.35-13.25Q406.35-8.2 407.35-6.05 408.35-3.9 410.14-3.9L410.14-3.9ZM445.44-33.05Q444.04-33.05 443.37-32.3 442.69-31.55 442.69-30L442.69-30 442.69-26.45 447.74-26.45 447.04-22 442.69-22 442.69 0 436.54 0 436.54-22 433.24-22 433.24-26.45 436.54-26.45 436.54-29.8Q436.54-33.4 438.64-35.55 440.74-37.7 444.64-37.7L444.64-37.7Q447.69-37.7 450.54-36.2L450.54-36.2 448.84-32.2Q447.09-33.05 445.44-33.05L445.44-33.05ZM459.94-27.15Q464.94-27.15 467.71-23.65 470.49-20.15 470.49-13.25L470.49-13.25Q470.49-6.65 467.69-2.95 464.89 0.75 459.94 0.75L459.94 0.75Q454.99 0.75 452.19-2.88 449.39-6.5 449.39-13.25L449.39-13.25Q449.39-19.95 452.19-23.55 454.99-27.15 459.94-27.15L459.94-27.15ZM459.94-22.5Q457.79-22.5 456.79-20.38 455.79-18.25 455.79-13.25L455.79-13.25Q455.79-8.2 456.79-6.08 457.79-3.95 459.94-3.95L459.94-3.95Q462.09-3.95 463.09-6.08 464.09-8.2 464.09-13.25L464.09-13.25Q464.09-18.3 463.09-20.4 462.09-22.5 459.94-22.5L459.94-22.5ZM486.69-27.1Q487.84-27.1 488.74-26.75L488.74-26.75 487.74-20.85Q486.74-21.1 485.89-21.1L485.89-21.1Q483.99-21.1 482.89-19.45 481.79-17.8 481.19-14.55L481.19-14.55 481.19 0 475.04 0 475.04-26.45 480.39-26.45 480.84-21.85Q482.69-27.1 486.69-27.1L486.69-27.1ZM516.43-34.55L522.93-34.55 513.83-13.15 513.83 0 507.43 0 507.43-13.1 498.33-34.55 505.08-34.55 510.73-18.3 516.43-34.55ZM534.93-27.15Q539.93-27.15 542.7-23.65 545.48-20.15 545.48-13.25L545.48-13.25Q545.48-6.65 542.68-2.95 539.88 0.75 534.93 0.75L534.93 0.75Q529.98 0.75 527.18-2.88 524.38-6.5 524.38-13.25L524.38-13.25Q524.38-19.95 527.18-23.55 529.98-27.15 534.93-27.15L534.93-27.15ZM534.93-22.5Q532.78-22.5 531.78-20.38 530.78-18.25 530.78-13.25L530.78-13.25Q530.78-8.2 531.78-6.08 532.78-3.95 534.93-3.95L534.93-3.95Q537.08-3.95 538.08-6.08 539.08-8.2 539.08-13.25L539.08-13.25Q539.08-18.3 538.08-20.4 537.08-22.5 534.93-22.5L534.93-22.5ZM568.17-26.45L568.17 0 562.82 0 562.52-3.35Q561.27-1.3 559.72-0.28 558.17 0.75 556.13 0.75L556.13 0.75Q553.22 0.75 551.55-1.3 549.88-3.35 549.88-6.65L549.88-6.65 549.88-26.45 556.02-26.45 556.02-7Q556.02-3.9 558.13-3.9L558.13-3.9Q559.32-3.9 560.27-4.83 561.22-5.75 562.02-7.45L562.02-7.45 562.02-26.45 568.17-26.45Z" opacity="1" transform="matrix(1,0,0,1,0,0)" fill="#000000" class="slogan-text-1" data-fill-palette-color="secondary" id="text-1"></path></svg></g></svg></g></svg></g></svg></g><g><svg viewBox="0 0 111.74557488767229 111.74557488767229" height="111.74557488767229" width="111.74557488767229"><g><svg></svg></g><g id="icon-0"><svg viewBox="0 0 111.74557488767229 111.74557488767229" height="111.74557488767229" width="111.74557488767229"><g><path d="M0 55.873c0-30.858 25.015-55.873 55.873-55.873 30.858 0 55.873 25.015 55.873 55.873 0 30.858-25.015 55.873-55.873 55.873-30.858 0-55.873-25.015-55.873-55.873zM55.873 107.605c28.571 0 51.732-23.161 51.732-51.732 0-28.571-23.161-51.732-51.732-51.732-28.571 0-51.732 23.161-51.732 51.732 0 28.571 23.161 51.732 51.732 51.732z" data-fill-palette-color="tertiary" fill="#261f20" stroke="transparent"></path></g><g transform="matrix(1,0,0,1,37.908651558905454,24.91009376315637)"><svg viewBox="0 0 35.92827176986138 61.92538736135955" height="61.92538736135955" width="35.92827176986138"><g><svg xmlns="http://www.w3.org/2000/svg" xmlns:xlink="http://www.w3.org/1999/xlink" version="1.1" x="0" y="0" viewBox="21.679106830508616 1 56.85827385947762 98" enable-background="new 0 0 100 100" xml:space="preserve" height="61.92538736135955" width="35.92827176986138" class="icon-dxe-0" data-fill-palette-color="accent" id="dxe-0"><g fill="#261f20" data-fill-palette-color="accent"><path fill-rule="evenodd" clip-rule="evenodd" d="M30.545 28.822C29.38 36.039 30.875 43.672 37.045 47.863 30.758 19.81 45.756 8.664 59.646 1 43.466 24.046 76.542 24.644 78.423 51.13 80.028 73.71 64.507 91.317 46.639 99 46.845 76.175 24.089 73.067 21.801 54.397 20.905 47.094 25.062 33.766 30.545 28.822" fill="#261f20" data-fill-palette-color="accent"></path></g></svg></g></svg></g></svg></g></svg></g></svg></g><defs></defs></svg><rect width="395.52" height="83.55793129597062" fill="none" stroke="none" visibility="hidden"></rect></g></svg></g></svg>